<svg width="154" height="145" viewBox="0 0 154 145" fill="none" xmlns="http://www.w3.org/2000/svg">
<path d="M58.5 20.5V0L83.5 43.5L0 57.5L58.5 20.5Z" transform="translate(70 85)" fill="#4F4F4F" fill-opacity="0.05"/>
<path d="M0 23.5904V107.648L68.11 141L127 103.852V23.5904L66.0281 0L0 23.5904ZM0 23.5904L68.11 56.6712" transform="translate(1 2)" stroke="#CFCFCF" stroke-width="2"/>
<path d="M0 32.5385L58.295 0" transform="translate(69.7048 26.1327)" stroke="#CFCFCF" stroke-width="2"/>
<path d="M0 0V84.0577" transform="translate(69.7048 58.6712)" stroke="#CFCFCF" stroke-width="2"/>
<path d="M32.4855 0C25.8111 1.83688 21.5027 4.33542 16.3037 7.94111C14.4211 9.24676 10.1955 11.0013 9.27528 12.8711C8.00978 15.4424 17.6926 14.7827 18.592 14.7604C25.7515 14.5836 32.6655 13.1798 39.7591 12.8711C43.6256 12.7028 34.4009 18.463 34.2426 18.5686C25.6059 24.3333 16.262 29.4916 7.47731 35.1298C6.40954 35.8152 1.97153 38.7708 0.694049 39.8532C0.41333 40.091 -0.224838 40.4587 0.0811039 40.6798C1.51659 41.7168 3.98711 39.8779 5.92451 39.4399C12.7461 37.8975 22.2032 35.1747 29.5025 35.9859C33.9163 36.4765 26.4294 44.2526 25.6205 45.285C22.6455 49.082 15.8645 55.4259 16.7532 60.134C17.3055 63.06 31.2368 53.4299 32.322 52.7243C34.2968 51.4403 36.0722 50.2452 38.1246 49.0637C39.9031 48.0398 34.6484 51.1842 32.8532 52.1929C26.7443 55.6255 17.2225 59.1647 12.7078 63.8241C12.3471 64.1964 13.9939 63.8561 14.5875 63.706C18.5741 62.698 22.4696 61.4215 26.2743 60.1045C29.346 59.0412 32.3159 57.8206 35.4276 56.8572" transform="translate(77.5254 52.4346)" stroke="#BDBDBD" stroke-linecap="round" stroke-linejoin="round"/>
<path d="M51.0171 6.46561C42.6814 7.77628 33.6672 4.95011 25.6125 3.42043C20.3482 2.42068 15.1107 1.21964 9.78616 0.435556C8.46803 0.241448 5.57803 -0.326147 4.13655 0.254654C2.28432 1.00096 13.8034 9.76007 14.1637 10.0233C20.7804 14.8584 29.2313 19.8471 33.058 26.606C35.0714 30.1621 28.9398 28.8962 27.1091 28.5356C21.2591 27.3832 15.8677 25.2523 10.8338 22.6262C5.99737 20.1031 9.21705 21.2534 11.8065 22.1136C19.763 24.7566 27.9337 26.8672 35.9764 29.3195C39.1813 30.2967 48.1421 33.3952 44.7314 33.6611C38.6311 34.1369 30.785 31.3797 25.0513 30.2843C19.1589 29.1586 14.9969 28.4041 9.11269 27.6914C8.36911 27.6013 1.37036 26.4235 0.0583579 27.2693C-1.04775 27.9824 13.924 39.8213 14.9494 40.656C15.1386 40.8101 21.3615 44.9057 19.7384 46.264C18.3607 47.4169 13.9537 47.2737 12.2181 47.4097C3.45576 48.0962 13.0701 48.5067 16.446 48.8267C20.1004 49.1732 23.4344 49.451 27.0717 49.8518C28.2968 49.9868 29.5291 50.0964 30.7383 50.3041C31.0604 50.3594 31.9273 50.5116 31.6363 50.6357C30.9924 50.9105 30.1941 50.8205 29.4662 50.8468C23.4949 51.0623 17.4756 50.8729 11.5072 50.696C9.39389 50.6334 4.11883 49.9354 5.22157 51.3895C9.49624 57.0263 22.5783 59.8428 29.7656 62.0024C32.763 62.9031 35.7362 63.6287 38.8947 63.9923" transform="translate(10.2266 54.0615)" stroke="#BDBDBD" stroke-linecap="round" stroke-linejoin="round"/>
<path d="M26.2425 0C23.8689 1.669 21.5556 2.26772 18.8815 3.43579C13.1056 5.95885 8.1786 9.69417 2.58222 12.4582C1.78464 12.8522 -0.572412 12.9834 0.128561 13.5197C1.06817 14.2385 5.70015 13.5586 6.75929 13.4918C17.0242 12.8446 26.8213 9.33107 37.0503 8.32412C37.9708 8.23351 40.3241 7.98852 39.7961 8.71519C37.4248 11.9784 32.1108 14.5403 28.6962 16.5365C24.3635 19.0694 10.2557 24.3998 15.201 23.2964C24.7997 21.1546 33.2403 12.974 41.2858 7.90512C46.1929 4.81354 42.397 8.57432 40.7308 10.2795C35.2549 15.8834 29.3057 21.2704 24.4607 27.4026C22.3498 30.0743 24.0831 29.5758 26.3009 28.6596C32.3128 26.1758 38.0132 23.0833 44.1192 20.7824C45.2748 20.3469 49.403 18.4015 50.9836 18.855C51.5191 19.0086 46.6475 23.8002 46.5144 23.9388C44.7506 25.7766 43.2684 27.7228 41.724 29.721C41.5153 29.991 40.732 30.5967 40.8476 30.2797C41.4817 28.5415 43.2589 25.9138 44.1776 24.6372C46.8912 20.8663 50.0524 16.5101 53.7586 13.5197C55.4125 12.1852 50.8519 16.5864 49.377 18.1008C46.3206 21.239 54.6055 17.6267 55.9201 17.151C56.9231 16.7881 63.2788 15.678 61.5869 17.4862C58.3822 20.9115 55.0471 25.1656 51.1881 27.9333C49.3898 29.2231 54.0969 24.6488 55.6865 23.1288" transform="translate(35.7351 11.2192)" stroke="#BDBDBD" stroke-linecap="round" stroke-linejoin="round"/>
<path d="M0 0L70 33.5V118L0 83.5V0Z" transform="translate(0 25)" fill="#56CCF2" fill-opacity="0.2"/>
</svg>
