<svg width="209" height="206" viewBox="0 0 209 206" fill="none" xmlns="http://www.w3.org/2000/svg">
<path d="M58.5 20.5V0L83.5 43.5L0 57.5L58.5 20.5Z" transform="translate(125.5 129.5)" fill="#4F4F4F" fill-opacity="0.05"/>
<path d="M0 33.7962V154.219L97.6066 202L182 148.781V33.7962L94.6229 0L0 33.7962ZM0 33.7962L97.6066 81.1885" transform="translate(1 2)" stroke="#CFCFCF" stroke-width="2"/>
<path d="M0 46.6154L83.541 0" transform="translate(99.459 36.5731)" stroke="#CFCFCF" stroke-width="2"/>
<path d="M0 0V120.423" transform="translate(99.459 83.1885)" stroke="#CFCFCF" stroke-width="2"/>
<path d="M46.554 0C36.9891 2.63156 30.8149 6.21102 23.3644 11.3766C20.6665 13.2471 14.6109 15.7607 13.2921 18.4394C11.4786 22.1232 25.3548 21.178 26.6437 21.1462C36.9038 20.8928 46.812 18.8817 56.9776 18.4394C62.5186 18.1984 49.2989 26.4505 49.0721 26.6019C36.6952 34.8605 23.3046 42.2504 10.7155 50.3278C9.18533 51.3097 2.82534 55.5439 0.994622 57.0946C0.592331 57.4354 -0.32221 57.9622 0.116228 58.2788C2.17338 59.7645 5.71381 57.1301 8.49025 56.5025C18.2661 54.2929 31.8188 50.3921 42.2792 51.5543C48.6045 52.2571 37.8752 63.3974 36.716 64.8764C32.4526 70.3161 22.735 79.4044 24.0086 86.1494C24.8 90.3412 44.7646 76.5449 46.3198 75.5341C49.1498 73.6946 51.6941 71.9825 54.6352 70.2898C57.1841 68.8229 49.6536 73.3277 47.081 74.7728C38.3265 79.6904 24.681 84.7608 18.2112 91.436C17.6943 91.9692 20.0542 91.4818 20.9049 91.2668C26.618 89.8227 32.2006 87.994 37.653 86.1071C42.0549 84.5838 46.3109 82.8352 50.7703 81.455" transform="translate(110.667 74.2538)" stroke="#BDBDBD" stroke-linecap="round" stroke-linejoin="round"/>
<path d="M73.1111 9.26279C61.1655 11.1405 48.2475 7.09165 36.7046 4.90019C29.1605 3.46792 21.6547 1.74729 14.0243 0.623988C12.1353 0.345904 7.99372 -0.467246 5.92797 0.364824C3.2736 1.43399 19.7812 13.9825 20.2976 14.3597C29.7799 21.2864 41.8906 28.4335 47.3746 38.1164C50.2599 43.211 41.4729 41.3974 38.8493 40.8808C30.4658 39.2299 22.7396 36.177 15.5256 32.4148C8.59467 28.8002 13.2087 30.4482 16.9196 31.6805C28.3218 35.4669 40.031 38.4906 51.5567 42.0038C56.1496 43.4038 68.9911 47.8427 64.1033 48.2238C55.3611 48.9053 44.117 44.9553 35.9003 43.386C27.456 41.7733 21.4916 40.6924 13.0591 39.6714C11.9935 39.5423 1.96382 37.8549 0.0836311 39.0666C-1.5015 40.0882 19.954 57.0489 21.4235 58.2448C21.6947 58.4655 30.6125 64.333 28.2866 66.2789C26.3122 67.9306 19.9966 67.7254 17.5094 67.9202C4.95236 68.9037 18.7305 69.4918 23.5682 69.9503C28.8053 70.4467 33.5832 70.8447 38.7957 71.4189C40.5513 71.6123 42.3173 71.7693 44.0502 72.0669C44.5117 72.1461 45.7541 72.3641 45.3371 72.542C44.4143 72.9355 43.2703 72.8067 42.2272 72.8443C33.6699 73.153 25.0438 72.8817 16.4907 72.6284C13.4621 72.5387 5.90258 71.5386 7.48289 73.6218C13.6088 81.6972 32.3564 85.7322 42.6562 88.8261C46.9517 90.1165 51.2126 91.156 55.7389 91.6769" transform="translate(14.2222 76.5846)" stroke="#BDBDBD" stroke-linecap="round" stroke-linejoin="round"/>
<path d="M37.6074 0C34.2059 2.39104 30.8907 3.24879 27.0586 4.9222C18.7813 8.53679 11.7205 13.8881 3.70051 17.848C2.55751 18.4123 -0.820308 18.6004 0.184237 19.3687C1.53076 20.3985 8.16872 19.4243 9.68654 19.3286C24.3969 18.4014 38.4369 13.3679 53.0958 11.9253C54.4149 11.7955 57.7874 11.4445 57.0306 12.4856C53.6324 17.1605 46.0171 20.8308 41.1237 23.6906C34.9146 27.3193 14.6972 34.9558 21.7842 33.3749C35.5398 30.3066 47.6357 18.5869 59.1655 11.3251C66.1977 6.896 60.7579 12.2838 58.3702 14.7266C50.5228 22.755 41.9971 30.4726 35.0539 39.2576C32.0288 43.0852 34.5129 42.3711 37.6911 41.0584C46.3065 37.5 54.4756 33.0696 63.226 29.7733C64.882 29.1495 70.798 26.3625 73.0632 27.0121C73.8305 27.2322 66.8492 34.0967 66.6585 34.2953C64.1309 36.9281 62.0067 39.7164 59.7934 42.5791C59.4944 42.9658 58.3719 43.8335 58.5376 43.3794C59.4463 40.8892 61.9932 37.1247 63.3097 35.2958C67.1985 29.8936 71.7287 23.6527 77.0399 19.3687C79.4101 17.4568 72.8745 23.7621 70.7608 25.9316C66.3807 30.4275 78.2536 25.2525 80.1376 24.571C81.5749 24.0511 90.6831 22.4607 88.2585 25.0512C83.6658 29.9583 78.8864 36.0528 73.3562 40.0179C70.7791 41.8657 77.5248 35.3124 79.8027 33.1348" transform="translate(50.7778 15.2077)" stroke="#BDBDBD" stroke-linecap="round" stroke-linejoin="round"/>
<path d="M0 0L98 47.5V168L0 121V0Z" transform="translate(1 36)" fill="#56CCF2" fill-opacity="0.2"/>
</svg>
