<svg width="259" height="264" viewBox="0 0 259 264" fill="none" xmlns="http://www.w3.org/2000/svg">
<path d="M58.5 20.5V0L83.5 43.5L0 57.5L58.5 20.5Z" transform="translate(175 172)" fill="#4F4F4F" fill-opacity="0.05"/>
<path d="M0 43.5V198.5L125.494 260L234 191.5V43.5L121.658 0L0 43.5ZM0 43.5L125.494 104.5" transform="translate(1 2)" stroke="#CFCFCF" stroke-width="2"/>
<path d="M0 60L107.41 0" transform="translate(127.59 46.5)" stroke="#CFCFCF" stroke-width="2"/>
<path d="M0 0V155" transform="translate(127.59 106.5)" stroke="#CFCFCF" stroke-width="2"/>
<path d="M59.8552 0C47.5575 3.38715 39.6192 7.99439 30.0399 14.6432C26.5712 17.0508 18.7855 20.2861 17.0899 23.7339C14.7582 28.4753 32.599 27.2588 34.2562 27.2178C47.4477 26.8918 60.1868 24.3032 73.2569 23.7339C80.381 23.4237 63.3843 34.0452 63.0927 34.24C47.1795 44.8699 29.9631 54.3817 13.7771 64.7784C11.8097 66.0421 3.63258 71.4922 1.2788 73.4881C0.761569 73.9267 -0.41427 74.6048 0.149436 75.0123C2.79434 76.9246 7.34633 73.5338 10.916 72.726C23.4849 69.8819 40.9099 64.8611 54.3589 66.3571C62.4914 67.2616 48.6967 81.6006 47.2063 83.5043C41.7248 90.5059 29.2307 102.204 30.8681 110.885C31.8857 116.281 57.5544 98.5232 59.554 97.2221C63.1925 94.8544 66.4638 92.6507 70.2453 90.472C73.5224 88.584 63.8404 94.3822 60.5328 96.2422C49.277 102.572 31.7327 109.098 23.4143 117.69C22.7498 118.376 25.784 117.749 26.8777 117.472C34.2232 115.613 41.4008 113.26 48.4109 110.831C54.0705 108.87 59.5426 106.62 65.2761 104.843" transform="translate(142 95)" stroke="#BDBDBD" stroke-linecap="round" stroke-linejoin="round"/>
<path d="M94 11.9224C78.6414 14.3392 62.0325 9.12786 47.1916 6.30718C37.492 4.46366 27.8417 2.24899 18.0312 0.803153C15.6025 0.445223 10.2776 -0.601406 7.62168 0.469575C4.20891 1.84573 25.433 17.9973 26.0969 18.4828C38.2884 27.3984 53.8593 36.5975 60.9101 49.0607C64.6199 55.6181 53.3222 53.2838 49.9491 52.6188C39.1703 50.4939 29.2366 46.5644 19.9614 41.722C11.0503 37.0696 16.9826 39.1907 21.7538 40.7768C36.4138 45.6504 51.4684 49.5423 66.2872 54.0643C72.1923 55.8663 88.7029 61.5797 82.4185 62.0702C71.1785 62.9474 56.7219 57.8632 46.1576 55.8434C35.3006 53.7677 27.6321 52.3764 16.7903 51.0621C15.4203 50.8961 2.52491 48.7241 0.107526 50.2838C-1.9305 51.5987 25.6552 73.4293 27.5445 74.9685C27.8932 75.2526 39.359 82.8049 36.3685 85.3094C33.83 87.4354 25.7099 87.1714 22.5121 87.4221C6.36732 88.688 24.082 89.4449 30.302 90.0351C37.0354 90.674 43.1784 91.1862 49.8802 91.9254C52.1374 92.1743 54.4079 92.3764 56.636 92.7593C57.2294 92.8613 58.8267 93.142 58.2905 93.3709C57.1041 93.8774 55.6333 93.7116 54.2922 93.76C43.2899 94.1573 32.1992 93.8081 21.2023 93.4821C17.3084 93.3666 7.58903 92.0794 9.62086 94.7608C17.497 105.155 41.6011 110.348 54.8437 114.331C60.3665 115.991 65.8448 117.33 71.6643 118" transform="translate(18 98)" stroke="#BDBDBD" stroke-linecap="round" stroke-linejoin="round"/>
<path d="M48.3524 0C43.979 3.07758 39.7166 4.18161 34.7896 6.33551C24.1474 10.9879 15.0692 17.8758 4.7578 22.9727C3.28823 23.6991 -1.05468 23.9411 0.236877 24.93C1.96812 26.2555 10.5026 25.0016 12.4541 24.8785C31.3674 23.685 49.4188 17.2062 68.266 15.3494C69.962 15.1824 74.2981 14.7306 73.3251 16.0706C68.9559 22.0878 59.1649 26.8119 52.8733 30.4929C44.8903 35.1634 18.8964 44.9926 28.0083 42.9578C45.694 39.0085 61.2459 23.9237 76.07 14.5768C85.1114 8.87604 78.1173 15.8108 75.0474 18.955C64.9579 29.2886 53.9963 39.2221 45.0694 50.5295C41.1799 55.4562 44.3737 54.537 48.46 52.8474C59.5369 48.2674 70.0401 42.5649 81.2905 38.3221C83.4197 37.5192 91.026 33.9319 93.9384 34.768C94.925 35.0513 85.949 43.8869 85.7038 44.1425C82.454 47.5313 79.7229 51.1201 76.8773 54.8047C76.4928 55.3026 75.0496 56.4194 75.2626 55.8349C76.4309 52.6297 79.7055 47.7842 81.3982 45.4302C86.3981 38.4769 92.2227 30.4441 99.0513 24.93C102.099 22.4692 93.6957 30.5849 90.9782 33.3773C85.3467 39.1641 100.612 32.5032 103.034 31.626C104.882 30.9568 116.593 28.9098 113.475 32.2441C107.57 38.5601 101.425 46.4046 94.3151 51.5082C91.0017 53.8865 99.6748 45.4517 102.603 42.6488" transform="translate(65 19)" stroke="#BDBDBD" stroke-linecap="round" stroke-linejoin="round"/>
<path d="M0 0L128 61V216L0 152.5V0Z" transform="translate(0 46)" fill="#56CCF2" fill-opacity="0.2"/>
</svg>
