<svg width="53" height="53" viewBox="0 0 53 53" fill="none" xmlns="http://www.w3.org/2000/svg">
<path d="M45.3333 0H5.66667C2.53705 0 0 2.53705 0 5.66667V45.3333C0 48.4629 2.53705 51 5.66667 51H45.3333C48.4629 51 51 48.4629 51 45.3333V5.66667C51 2.53705 48.4629 0 45.3333 0Z" transform="translate(1 1)" stroke="#BDBDBD" stroke-linecap="round" stroke-linejoin="round"/>
<path d="M4.25 8.5C6.59721 8.5 8.5 6.59721 8.5 4.25C8.5 1.90279 6.59721 0 4.25 0C1.90279 0 0 1.90279 0 4.25C0 6.59721 1.90279 8.5 4.25 8.5Z" transform="translate(12.3333 12.3333)" stroke="#BDBDBD" stroke-linecap="round" stroke-linejoin="round"/>
<path d="M45.3333 14.1667L31.1667 0L0 31.1667" transform="translate(6.66675 20.8333)" stroke="#BDBDBD" stroke-linecap="round" stroke-linejoin="round"/>
</svg>
